<svg xmlns="http://www.w3.org/2000/svg" viewBox="0 0 48 48" id="industry-small" aria-hidden="true" role="none" data-supported-dps="48x48" width="48" height="48">
  <path d="M14 0h25.75c1.71-.02 3.13 1.3 3.25 3v45H14V0z" fill="#56687a"/>
  <path fill="#788fa5" d="M21 0h3v24h-3zM33 0h3v48h-3zM27 0h3v48h-3z"/>
  <path fill="#fde2bc" d="M21 6h3v3h-3zM33 6h3v3h-3z"/>
  <path fill="#f8c77e" d="M27 12h3v3h-3zM33 18h3v3h-3z"/>
  <path fill="#fde2bc" d="M33 24h3v3h-3zM21 0h3v3h-3z"/>
  <path fill="#edf3f8" d="M5 8h9v8H5V8z"/>
  <path fill="#788fa5" d="M5 40h22v8H5v-8z"/>
  <path fill="#9db3c8" d="M5 32h22v8H5v-8z"/>
  <path fill="#c0d1e2" d="M5 24h22v8H5v-8z"/>
  <path fill="#dde7f1" d="M5 16h16v8H5v-8z"/>
  <path fill="#edf3f8" d="M36 34.33L28.5 28 21 34.33V48h15V34.33z"/>
  <circle cx="28.5" cy="34.5" r="1.5" fill="#56687a"/>
  <path fill="#788fa5" d="M27 45h3v3h-3z"/>
</svg>
